<?xml version="1.0" standalone="no"?>
<!DOCTYPE svg PUBLIC "-//W3C//DTD SVG 20010904//EN"
 "http://www.w3.org/TR/2001/REC-SVG-20010904/DTD/svg10.dtd">
<svg version="1.0" xmlns="http://www.w3.org/2000/svg"
 width="16.000000pt" height="16.000000pt" viewBox="0 0 16.000000 16.000000"
 preserveAspectRatio="xMidYMid meet">

<g transform="translate(0.000000,16.000000) scale(0.100000,-0.100000)"
fill="#000000" stroke="none">
<path d="M106 148 c-13 -41 -14 -63 -4 -75 26 -32 -30 -61 -60 -31 -9 9 -12 9
-12 0 0 -6 11 -19 24 -27 38 -25 69 -5 64 40 -3 28 0 35 16 37 11 2 21 9 24
17 3 9 -1 11 -16 7 -25 -8 -38 10 -22 29 9 11 9 15 1 15 -6 0 -13 -6 -15 -12z"/>
</g>
</svg>
